<?xml version="1.0" encoding="UTF-8"?>
<svg width="109px" height="35px" viewBox="0 0 109 35" version="1.1" xmlns="http://www.w3.org/2000/svg" xmlns:xlink="http://www.w3.org/1999/xlink">
    <!-- Generator: Sketch 52.6 (67491) - http://www.bohemiancoding.com/sketch -->
    <title>A/ロゴ/スポジョバ</title>
    <desc>Created with Sketch.</desc>
    <defs>
        <path d="M11.9500524,24.8672131 L6.57424084,34.4319672 L0.336701571,34.4319672 L15.1230366,9.47295082 L6.63701571,9.47295082 L8.28057592,4.3147541 L23.9457592,4.3147541 L16.2643979,17.4483607 L18.5699476,34.4319672 L12.9658639,34.4319672 L11.9500524,24.8672131 Z M32.0494241,14.7516393 L27.6266492,31.4540984 L22.6959686,31.4540984 L27.4383246,14.7516393 L32.0494241,14.7516393 Z M39.9875916,7.36721311 L45.6715707,7.36721311 L44.0280105,12.5254098 L38.9375393,12.5254098 L34.4805236,34.4262295 L28.7166492,34.4262295 L33.1736649,12.5254098 L26.8219895,12.5254098 L28.4655497,7.36721311 L34.2294241,7.36721311 L34.8914136,4.11393443 L40.655288,4.11393443 L39.9875916,7.36721311 Z M41.6768063,31.4540984 L36.8602618,31.4540984 L39.1144503,14.7516393 L43.7312565,14.7516393 L41.6768063,31.4540984 Z M44.8326702,8.43442623 C43.6570681,8.43442623 42.7725131,8.06147541 42.1790052,7.30983607 C41.5854974,6.56393443 41.4028796,5.65163934 41.6197382,4.57295082 C41.8480105,3.45983607 42.4015707,2.50163934 43.2918325,1.70409836 C44.1820942,0.906557377 45.1807853,0.504918033 46.2879058,0.504918033 C47.4635079,0.504918033 48.3594764,0.872131148 48.9701047,1.60081967 C49.580733,2.3295082 49.7747644,3.25327869 49.5464921,4.36639344 C49.3068063,5.54836066 48.7361257,6.52377049 47.8344503,7.28688525 C46.9384817,8.0557377 45.9397906,8.43442623 44.8326702,8.43442623 Z M45.78,3.17295082 C45.454712,3.17295082 45.1636649,3.29344262 44.9011518,3.54016393 C44.6386387,3.78688525 44.4731414,4.0795082 44.3989529,4.4295082 C44.2448691,5.18688525 44.5644503,5.55983607 45.3576963,5.55983607 C46.1281152,5.55983607 46.5960733,5.16393443 46.7558639,4.36639344 C46.8243455,4.02213115 46.7672775,3.7352459 46.5789529,3.51147541 C46.3906283,3.28196721 46.1224084,3.17295082 45.78,3.17295082 Z M65.2630366,17.6836066 L53.41,34.4319672 L46.3050262,34.4319672 L58.8257592,17.6836066 L65.2630366,17.6836066 Z M57.1251309,17.1729508 L49.6834555,17.1729508 L50.6935602,12.2098361 L58.1352356,12.2098361 L57.1251309,17.1729508 Z M58.8428796,9.31229508 L51.4012042,9.31229508 L52.4113089,4.35491803 L59.8529843,4.35491803 L58.8428796,9.31229508 Z M64.7836649,9.1057377 L61.6791623,9.1057377 L63.1572251,1.85327869 L66.2560209,1.85327869 L64.7836649,9.1057377 Z M69.2349738,9.1057377 L66.136178,9.1057377 L67.6142408,1.85327869 L70.7130366,1.85327869 L69.2349738,9.1057377 Z M103.002147,9.1057377 L99.9033508,9.1057377 L101.381414,1.85327869 L104.480209,1.85327869 L103.002147,9.1057377 Z M107.459162,9.1057377 L104.360366,9.1057377 L105.832723,1.85327869 L108.937225,1.85327869 L107.459162,9.1057377 Z M75.5181675,22.6868852 L68.6528796,22.6868852 L70.0567539,18.3204918 L76.4084293,18.3204918 L77.3842932,13.5180328 L69.4518325,13.5180328 L70.8899476,9.15163934 L83.3593194,9.15163934 L79.1534031,29.8245902 L74.9874346,34.1909836 L65.4,34.1909836 L66.8095812,29.7844262 L74.0686387,29.7844262 L75.5181675,22.6868852 Z M97.0898953,4.1942623 L89.174555,33.795082 L83.3764398,33.795082 L91.6456021,4.1942623 L97.0898953,4.1942623 Z M103.26466,11.4352459 L100.359895,33.795082 L94.5617801,33.795082 L97.8146597,11.4352459 L103.26466,11.4352459 Z" id="path-1"></path>
    </defs>
    <g id="Page-1" stroke="none" stroke-width="1" fill="none" fill-rule="evenodd">
        <g id="LP_ユーザー向け" transform="translate(-38.000000, -29.000000)">
            <g id="A/ロゴ/スポジョバ" transform="translate(38.000000, 29.000000)">
                <g id="A/色/グレー（#17181A）">
                    <mask id="mask-2" fill="white">
                        <use xlink:href="#path-1"></use>
                    </mask>
                    <use id="Mask" fill="#17181A" fill-rule="nonzero" xlink:href="#path-1"></use>
                    <g mask="url(#mask-2)" fill="#17181A" id="Rectangle">
                        <rect x="0" y="0" width="109" height="35"></rect>
                    </g>
                </g>
            </g>
        </g>
    </g>
</svg>