<?xml version="1.0" encoding="UTF-8"?>
<svg width="456px" height="365px" viewBox="0 0 456 365" version="1.1" xmlns="http://www.w3.org/2000/svg" xmlns:xlink="http://www.w3.org/1999/xlink">
    <!-- Generator: Sketch 52.6 (67491) - http://www.bohemiancoding.com/sketch -->
    <title>グラフ</title>
    <desc>Created with Sketch.</desc>
    <g id="Page-1" stroke="none" stroke-width="1" fill="none" fill-rule="evenodd">
        <g id="LP_ユーザー向け" transform="translate(-150.000000, -3310.000000)">
            <g id="グラフ" transform="translate(150.000000, 3310.000000)">
                <rect id="Rectangle" fill="#F7F9FC" x="0" y="0" width="456" height="365" rx="8"></rect>
                <g id="グラフ">
                    <rect id="Rectangle" x="0" y="0" width="456" height="365"></rect>
                    <g id="Group" transform="translate(50.000000, 77.000000)">
                        <path d="M56,212.5 L355.3,212.5" id="Path" stroke="#DFE2E7" stroke-width="0.677"></path>
                        <path d="M56.2,110.5 L355.5,110.5" id="Path" stroke="#DFE2E7" stroke-width="0.677"></path>
                        <path d="M56.5,8.5 L355.8,8.5" id="Path" stroke="#DFE2E7" stroke-width="0.677"></path>
                        <g transform="translate(56.000000, 229.000000)" fill="#17181A" fill-rule="nonzero">
                            <path d="M7.1,9.9 L7.1,11.4 L0,11.4 C0.3,9.3 1,8 3.3,6.5 C4.8,5.5 5.2,4.9 5.2,4 C5.2,3.3 4.9,2.3 3.7,2.3 C2.2,2.3 2,3.6 2,4.5 L0.3,4.5 C0.3,3.6 0.5,0.8 3.7,0.8 C6.3,0.8 7,2.7 7,3.9 C7,5.6 5.8,6.6 4.3,7.6 C2.7,8.7 2.4,9.1 2.1,9.9 L7.1,9.9 Z" id="Path"></path>
                            <path d="M15.1,6.2 C15.1,7.8 14.8,11.6 11.6,11.6 C8.4,11.6 8.1,8 8.1,6.2 C8.1,4.5 8.4,0.8 11.6,0.8 C14.7,0.9 15.1,4.5 15.1,6.2 Z M9.8,6.2 C9.8,10 10.9,10.2 11.6,10.2 C12.3,10.2 13.3,9.9 13.3,6.2 C13.3,2.4 12.2,2.2 11.6,2.2 C10.9,2.3 9.8,2.5 9.8,6.2 Z" id="Shape"></path>
                            <path d="M20.5,11.4 L18.8,11.4 L18.8,4.1 L16.1,4.1 L16.1,2.9 C18.1,2.9 18.5,2.3 19,1 L20.5,1 L20.5,11.4 Z" id="Path"></path>
                            <path d="M30.5,2.5 L26.1,2.5 L25.7,5.4 C26.3,4.5 27.4,4.5 27.7,4.5 C29.5,4.5 30.8,6 30.8,7.9 C30.8,9.9 29.6,11.5 27.3,11.5 C25.3,11.5 24,10.5 23.9,8.6 L25.7,8.6 C25.8,8.9 26,10 27.4,10 C28.4,10 29.1,9.1 29.1,8 C29.1,6.9 28.5,6 27.4,6 C26.4,6 26.1,6.5 25.9,6.9 L24.2,6.9 L24.9,1 L30.6,1 L30.6,2.5 L30.5,2.5 Z" id="Path"></path>
                        </g>
                        <g transform="translate(190.000000, 229.000000)" fill="#17181A" fill-rule="nonzero">
                            <path d="M7.1,9.9 L7.1,11.4 L0,11.4 C0.3,9.3 1,8 3.3,6.5 C4.8,5.5 5.2,4.9 5.2,4 C5.2,3.3 4.9,2.3 3.7,2.3 C2.2,2.3 2,3.6 2,4.5 L0.3,4.5 C0.3,3.6 0.5,0.8 3.7,0.8 C6.3,0.8 7,2.7 7,3.9 C7,5.6 5.8,6.6 4.3,7.6 C2.7,8.7 2.4,9.1 2.1,9.9 L7.1,9.9 Z" id="Path"></path>
                            <path d="M15.1,6.2 C15.1,7.8 14.8,11.6 11.6,11.6 C8.4,11.6 8.1,8 8.1,6.2 C8.1,4.5 8.4,0.8 11.6,0.8 C14.8,0.9 15.1,4.5 15.1,6.2 Z M9.8,6.2 C9.8,10 10.9,10.2 11.6,10.2 C12.3,10.2 13.3,9.9 13.3,6.2 C13.3,2.4 12.2,2.2 11.6,2.2 C10.9,2.3 9.8,2.5 9.8,6.2 Z" id="Shape"></path>
                            <path d="M22.9,9.9 L22.9,11.4 L15.8,11.4 C16.1,9.3 16.8,8 19.1,6.5 C20.6,5.5 21,4.9 21,4 C21,3.3 20.7,2.3 19.5,2.3 C18,2.3 17.8,3.6 17.8,4.5 L16.1,4.5 C16.1,3.6 16.3,0.8 19.5,0.8 C22.1,0.8 22.8,2.7 22.8,3.9 C22.8,5.6 21.6,6.6 20.1,7.6 C18.5,8.7 18.2,9.1 17.9,9.9 L22.9,9.9 Z" id="Path"></path>
                            <path d="M30.9,6.2 C30.9,7.8 30.6,11.6 27.4,11.6 C24.2,11.6 23.9,8 23.9,6.2 C23.9,4.5 24.2,0.8 27.4,0.8 C30.5,0.9 30.9,4.5 30.9,6.2 Z M25.6,6.2 C25.6,10 26.7,10.2 27.4,10.2 C28.1,10.2 29.1,9.9 29.1,6.2 C29.1,2.4 28,2.2 27.4,2.2 C26.7,2.3 25.6,2.5 25.6,6.2 Z" id="Shape"></path>
                        </g>
                        <g transform="translate(324.000000, 229.000000)" fill="#17181A" fill-rule="nonzero">
                            <path d="M7.1,9.9 L7.1,11.4 L0,11.4 C0.3,9.3 1,8 3.3,6.5 C4.8,5.5 5.2,4.9 5.2,4 C5.2,3.3 4.9,2.3 3.7,2.3 C2.2,2.3 2,3.6 2,4.5 L0.3,4.5 C0.3,3.6 0.5,0.8 3.7,0.8 C6.3,0.8 7,2.7 7,3.9 C7,5.6 5.8,6.6 4.3,7.6 C2.7,8.7 2.4,9.1 2.1,9.9 L7.1,9.9 Z" id="Path"></path>
                            <path d="M15.2,6.2 C15.2,7.8 14.9,11.6 11.7,11.6 C8.5,11.6 8.2,8 8.2,6.2 C8.2,4.5 8.5,0.8 11.7,0.8 C14.8,0.9 15.2,4.5 15.2,6.2 Z M9.9,6.2 C9.9,10 11,10.2 11.7,10.2 C12.4,10.2 13.4,9.9 13.4,6.2 C13.4,2.4 12.3,2.2 11.7,2.2 C10.9,2.3 9.9,2.5 9.9,6.2 Z" id="Shape"></path>
                            <path d="M22.9,9.9 L22.9,11.4 L15.8,11.4 C16.1,9.3 16.8,8 19.1,6.5 C20.6,5.5 21,4.9 21,4 C21,3.3 20.7,2.3 19.5,2.3 C18,2.3 17.8,3.6 17.8,4.5 L16.1,4.5 C16.1,3.6 16.3,0.8 19.5,0.8 C22.1,0.8 22.8,2.7 22.8,3.9 C22.8,5.6 21.6,6.6 20.1,7.6 C18.5,8.7 18.2,9.1 17.9,9.9 L22.9,9.9 Z" id="Path"></path>
                            <path d="M30.5,2.5 L26.1,2.5 L25.7,5.4 C26.3,4.5 27.4,4.5 27.7,4.5 C29.5,4.5 30.8,6 30.8,7.9 C30.8,9.9 29.6,11.5 27.3,11.5 C25.3,11.5 24,10.5 23.9,8.6 L25.7,8.6 C25.8,8.9 26,10 27.4,10 C28.4,10 29.1,9.1 29.1,8 C29.1,6.9 28.5,6 27.4,6 C26.4,6 26.1,6.5 25.9,6.9 L24.2,6.9 L24.9,1 L30.6,1 L30.6,2.5 L30.5,2.5 Z" id="Path"></path>
                        </g>
                        <g transform="translate(8.000000, 204.000000)" fill="#17181A" fill-rule="nonzero">
                            <path d="M7,2.9 L2.6,2.9 L2.2,5.8 C2.8,4.9 3.9,4.9 4.2,4.9 C6,4.9 7.3,6.4 7.3,8.3 C7.3,10.3 6.1,11.9 3.8,11.9 C1.8,11.9 0.5,10.9 0.4,9 L2.2,9 C2.3,9.3 2.5,10.4 3.9,10.4 C4.9,10.4 5.6,9.5 5.6,8.4 C5.6,7.3 5,6.4 3.9,6.4 C2.9,6.4 2.6,6.9 2.4,7.3 L0.7,7.3 L1.4,1.4 L7.1,1.4 L7.1,2.9 L7,2.9 Z" id="Path"></path>
                            <path d="M9.7,11.2 C12.9,10.4 13.4,9.1 13.5,7.7 C12.9,8 11,8.8 10.7,9 C10.7,9.1 10.6,9.2 10.6,9.3 C10.6,9.3 10.5,9.4 10.5,9.4 C10.4,9.4 10.4,9.3 10.3,9.1 L9.8,7.6 C11,7.3 12.2,6.9 13.6,6.4 L13.6,0.5 L15.2,0.7 C15.4,0.7 15.5,0.8 15.5,0.9 C15.5,1 15.4,1.1 15.2,1.1 C15.1,1.1 15.1,1.2 15.1,1.4 L15.1,7.2 C15.1,10.5 13.5,11.6 10.9,12.6 L9.7,11.2 Z M10.9,1.7 C11.6,2.4 12.4,3.2 13.1,4.5 L11.8,5.3 C11.1,4 10.4,3.2 9.8,2.5 L10.9,1.7 Z M17.5,10 C17.5,10.5 17.6,10.7 18.3,10.7 L19.6,10.7 C20,10.7 20.3,10.2 20.4,9.1 L21.8,9.8 C21.4,11.6 21,12.2 19.7,12.2 L17.5,12.2 C16.6,12.2 16.1,12 16.1,10.6 L16.1,0.5 L17.6,0.7 C17.9,0.7 18,0.8 18,0.9 C18,1 17.9,1 17.9,1.1 C17.7,1.2 17.6,1.3 17.6,1.4 L17.6,6.6 L18.5,5.7 C20,6.6 20.8,7.5 21.2,8 L20,9.1 C19.3,8.1 18.2,7.2 17.6,6.7 L17.6,10 L17.5,10 Z M20.8,2.1 C21,2.2 21.1,2.2 21.1,2.3 C21.1,2.4 20.7,2.4 20.6,2.5 C20.5,2.6 20.1,3.1 20,3.3 C19.2,4.5 18.9,4.8 18.7,5.1 L17.6,4.5 C18.1,3.8 18.9,2.4 19.2,1.6 L20.8,2.1 Z" id="Shape"></path>
                            <path d="M31.7,10.9 C33.1,10.9 33.2,10.8 33.2,10.2 L33.2,7.4 L25.5,7.4 L25.5,12.5 L24,12.5 L24,0.7 L34.7,0.7 L34.7,10.8 C34.7,12.1 34.3,12.4 32.4,12.5 L31.7,10.9 Z M28.5,2.2 L25.5,2.2 L25.5,5.9 L28.5,5.9 L28.5,2.2 Z M33.2,2.2 L30,2.2 L30,5.9 L33.1,5.9 L33.1,2.2 L33.2,2.2 Z" id="Shape"></path>
                        </g>
                        <g transform="translate(0.000000, 104.000000)" fill="#17181A" fill-rule="nonzero">
                            <path d="M5,11.4 L3.3,11.4 L3.3,4.1 L0.6,4.1 L0.6,2.9 C2.6,2.9 3,2.3 3.5,1 L5,1 L5,11.4 Z" id="Path"></path>
                            <path d="M15.4,6.2 C15.4,7.8 15.1,11.6 11.9,11.6 C8.7,11.6 8.4,8 8.4,6.2 C8.4,4.5 8.7,0.8 11.9,0.8 C15,0.9 15.4,4.5 15.4,6.2 Z M10.1,6.2 C10.1,10 11.2,10.2 11.9,10.2 C12.6,10.2 13.6,9.9 13.6,6.2 C13.6,2.4 12.5,2.2 11.9,2.2 C11.1,2.3 10.1,2.5 10.1,6.2 Z" id="Shape"></path>
                            <path d="M17.7,10.8 C20.9,10 21.4,8.7 21.5,7.3 C20.9,7.6 19,8.4 18.7,8.6 C18.7,8.7 18.6,8.8 18.6,8.9 C18.6,8.9 18.5,9 18.5,9 C18.4,9 18.4,8.9 18.3,8.7 L17.8,7.2 C19,6.9 20.2,6.5 21.6,6 L21.6,0.1 L23.2,0.3 C23.4,0.3 23.5,0.4 23.5,0.5 C23.5,0.6 23.4,0.7 23.2,0.7 C23.1,0.7 23.1,0.8 23.1,1 L23.1,6.8 C23.1,10.1 21.5,11.2 18.9,12.2 L17.7,10.8 Z M18.9,1.4 C19.6,2.1 20.4,2.9 21.1,4.2 L19.8,5 C19.1,3.7 18.4,2.9 17.8,2.2 L18.9,1.4 Z M25.5,9.7 C25.5,10.2 25.6,10.4 26.3,10.4 L27.6,10.4 C28,10.4 28.3,9.9 28.4,8.8 L29.8,9.5 C29.4,11.3 29,11.9 27.7,11.9 L25.5,11.9 C24.6,11.9 24.1,11.7 24.1,10.3 L24.1,0.2 L25.6,0.4 C25.9,0.4 26,0.5 26,0.6 C26,0.7 25.9,0.7 25.9,0.8 C25.7,0.9 25.6,1 25.6,1.1 L25.6,6.3 L26.5,5.4 C28,6.3 28.8,7.2 29.2,7.7 L28,8.8 C27.3,7.8 26.2,6.9 25.6,6.4 L25.6,9.7 L25.5,9.7 Z M28.8,1.8 C29,1.9 29.1,1.9 29.1,2 C29.1,2.1 28.7,2.1 28.6,2.2 C28.5,2.3 28.1,2.8 28,3 C27.2,4.2 26.9,4.5 26.7,4.8 L25.6,4.2 C26.1,3.5 26.9,2.1 27.2,1.3 L28.8,1.8 Z" id="Shape"></path>
                            <path d="M39.7,10.5 C41.1,10.5 41.2,10.4 41.2,9.8 L41.2,7 L33.5,7 L33.5,12.1 L32,12.1 L32,0.3 L42.7,0.3 L42.7,10.4 C42.7,11.7 42.3,12 40.4,12.1 L39.7,10.5 Z M36.5,1.8 L33.5,1.8 L33.5,5.5 L36.5,5.5 L36.5,1.8 Z M41.2,1.8 L38,1.8 L38,5.5 L41.1,5.5 L41.1,1.8 L41.2,1.8 Z" id="Shape"></path>
                        </g>
                        <g transform="translate(0.000000, 2.000000)" fill="#17181A" fill-rule="nonzero">
                            <path d="M5,11.4 L3.3,11.4 L3.3,4.1 L0.6,4.1 L0.6,2.9 C2.6,2.9 3,2.3 3.5,1 L5,1 L5,11.4 Z" id="Path"></path>
                            <path d="M15,2.5 L10.6,2.5 L10.2,5.4 C10.8,4.5 11.9,4.5 12.2,4.5 C14,4.5 15.3,6 15.3,7.9 C15.3,9.9 14.1,11.5 11.8,11.5 C9.8,11.5 8.5,10.5 8.4,8.6 L10.2,8.6 C10.3,8.9 10.5,10 11.9,10 C12.9,10 13.6,9.1 13.6,8 C13.6,6.9 13,6 11.9,6 C10.9,6 10.6,6.5 10.4,6.9 L8.7,6.9 L9.4,1 L15.1,1 L15.1,2.5 L15,2.5 Z" id="Path"></path>
                            <path d="M17.7,10.8 C20.9,10 21.4,8.7 21.5,7.3 C20.9,7.6 19,8.4 18.7,8.6 C18.7,8.7 18.6,8.8 18.6,8.9 C18.6,8.9 18.5,9 18.5,9 C18.4,9 18.4,8.9 18.3,8.7 L17.8,7.2 C19,6.9 20.2,6.5 21.6,6 L21.6,0.1 L23.2,0.3 C23.4,0.3 23.5,0.4 23.5,0.5 C23.5,0.6 23.4,0.7 23.2,0.7 C23.1,0.7 23.1,0.8 23.1,1 L23.1,6.8 C23.1,10.1 21.5,11.2 18.9,12.2 L17.7,10.8 Z M18.9,1.4 C19.6,2.1 20.4,2.9 21.1,4.2 L19.8,5 C19.1,3.7 18.4,2.9 17.8,2.2 L18.9,1.4 Z M25.5,9.7 C25.5,10.2 25.6,10.4 26.3,10.4 L27.6,10.4 C28,10.4 28.3,9.9 28.4,8.8 L29.8,9.5 C29.4,11.3 29,11.9 27.7,11.9 L25.5,11.9 C24.6,11.9 24.1,11.7 24.1,10.3 L24.1,0.2 L25.6,0.4 C25.9,0.4 26,0.5 26,0.6 C26,0.7 25.9,0.7 25.9,0.8 C25.7,0.9 25.6,1 25.6,1.1 L25.6,6.3 L26.5,5.4 C28,6.3 28.8,7.2 29.2,7.7 L28,8.8 C27.3,7.8 26.2,6.9 25.6,6.4 L25.6,9.7 L25.5,9.7 Z M28.8,1.8 C29,1.9 29.1,1.9 29.1,2 C29.1,2.1 28.7,2.1 28.6,2.2 C28.5,2.3 28.1,2.8 28,3 C27.2,4.2 26.9,4.5 26.7,4.8 L25.6,4.2 C26.1,3.5 26.9,2.1 27.2,1.3 L28.8,1.8 Z" id="Shape"></path>
                            <path d="M39.7,10.5 C41.1,10.5 41.2,10.4 41.2,9.8 L41.2,7 L33.5,7 L33.5,12.1 L32,12.1 L32,0.3 L42.7,0.3 L42.7,10.4 C42.7,11.7 42.3,12 40.4,12.1 L39.7,10.5 Z M36.5,1.8 L33.5,1.8 L33.5,5.5 L36.5,5.5 L36.5,1.8 Z M41.2,1.8 L38,1.8 L38,5.5 L41.1,5.5 L41.1,1.8 L41.2,1.8 Z" id="Shape"></path>
                        </g>
                        <circle id="Oval" fill="#E63A70" fill-rule="nonzero" cx="71.5" cy="169.5" r="8"></circle>
                        <circle id="Oval" fill="#E63A70" fill-rule="nonzero" cx="205.5" cy="110.5" r="8"></circle>
                        <circle id="Oval" fill="#E63A70" fill-rule="nonzero" cx="339.6" cy="8.5" r="8"></circle>
                        <polyline id="Path" stroke="#E63A70" stroke-width="2.4555" points="71.4 170 205.5 110 339.5 9"></polyline>
                    </g>
                    <g id="Group" transform="translate(275.000000, 339.000000)" fill="#17181A" fill-rule="nonzero">
                        <path d="M4,3.6 C4.2,3.3 4.3,3.1 4.4,2.8 L5,3.1 C5.1,3.1 5.2,3.2 5.2,3.3 C5.2,3.4 5.1,3.4 5,3.4 C5,3.5 4.9,3.5 4.9,3.6 L9.3,3.6 L9.3,4.3 L6.5,4.3 C7.3,5.4 8.6,6 9.5,6.2 L8.9,6.8 C8,6.4 6.7,5.8 5.7,4.2 L4.5,4.2 C4,4.9 3.1,5.9 1.2,6.8 L0.6,6.2 C1.7,5.8 2.7,5.2 3.6,4.2 L0.7,4.2 L0.7,3.5 L4,3.5 L4,3.6 Z M1.4,2.2 C1.5,2.2 2.4,2.2 2.6,2.2 C3.1,1.7 3.6,1.1 4,0.5 L4.6,0.9 C4.7,0.9 4.7,1 4.7,1 C4.7,1 4.6,1.1 4.6,1.1 C4.5,1.1 4.5,1.1 4.4,1.1 C4,1.5 3.7,1.8 3.4,2.2 C4.6,2.2 5.8,2.1 6.9,2 C6.7,1.8 6.5,1.7 6.3,1.5 L6.8,1.1 C7.7,1.8 8.1,2.3 8.5,2.9 L8,3.3 C7.8,3 7.7,2.8 7.4,2.5 C5.5,2.7 3.7,2.9 1.8,3 C1.7,3.2 1.7,3.2 1.7,3.2 C1.6,3.2 1.6,3.1 1.6,3 L1.4,2.2 Z M1.7,9 C3.7,8.9 5.7,8.4 7.2,7 L7.7,7.5 C7.8,7.5 7.8,7.6 7.8,7.6 C7.8,7.7 7.8,7.7 7.7,7.7 C7.6,7.7 7.5,7.7 7.5,7.7 C6.7,8.2 5.9,8.7 5,9 C4,9.3 3.1,9.5 2.1,9.6 L1.7,9 Z M1.9,6.7 C2.7,6.5 3.9,6.1 5.2,4.9 L5.7,5.3 C5.8,5.4 5.8,5.4 5.8,5.5 C5.8,5.6 5.8,5.6 5.7,5.6 C5.7,5.6 5.6,5.6 5.5,5.6 C4.9,6.2 4,6.8 2.5,7.4 L1.9,6.7 Z M1.9,7.8 C2.3,7.8 3.2,7.6 4.2,7.2 C5.2,6.7 5.8,6.2 6,6 L6.6,6.5 C6.7,6.6 6.7,6.6 6.7,6.7 C6.7,6.8 6.6,6.8 6.6,6.8 C6.6,6.8 6.5,6.8 6.4,6.8 C5.4,7.5 4.4,8.1 2.4,8.6 L1.9,7.8 Z" id="Shape"></path>
                        <path d="M12.1,7.8 C11.7,8.8 11.4,9.3 11.1,9.7 L10.4,9.3 C10.9,8.7 11.4,7.9 11.6,7.1 L12.3,7.4 C12.4,7.4 12.4,7.5 12.4,7.6 C12.4,7.8 12.2,7.8 12.1,7.8 Z M13.3,7.1 L13.3,6.6 L11.4,6.6 L11.4,7.1 L10.7,7.1 L10.7,0.9 L13.9,0.9 L13.9,7.1 L13.3,7.1 Z M13.3,1.5 L11.4,1.5 L11.4,3.4 L13.3,3.4 L13.3,1.5 Z M13.3,4.1 L11.4,4.1 L11.4,6 L13.3,6 L13.3,4.1 Z M13.9,9.5 C13.7,8.9 13.5,8.2 13.1,7.6 L13.7,7.3 C14.1,7.9 14.4,8.4 14.6,9.1 L13.9,9.5 Z M18.8,3.2 C18.5,4 17.9,4 17,4 L16.7,3.2 C16.9,3.2 17.2,3.2 17.4,3.2 C18.2,3.2 18.4,3.1 18.4,1.5 L16.8,1.5 C16.4,3.3 15.4,3.8 14.7,4.1 L14.2,3.6 C15.6,3 15.9,2.5 16.1,1.5 L14.5,1.5 L14.5,0.9 L19.1,0.9 C19.1,1.6 19.1,2.5 18.8,3.2 Z M18.3,7.1 L18.3,6.8 L15.5,6.8 L15.5,7.1 L14.8,7.1 L14.8,4.2 L18.9,4.2 L18.9,7.1 L18.3,7.1 Z M16.2,9.5 C16,8.8 15.7,8.3 15.3,7.6 L15.9,7.3 C16.4,7.9 16.7,8.6 16.9,9.1 L16.2,9.5 Z M18.3,4.8 L15.5,4.8 L15.5,6.2 L18.3,6.2 L18.3,4.8 Z M18.8,9.6 C18.6,9.1 18.2,8.4 17.6,7.6 L18.1,7.2 C18.6,7.8 19.2,8.6 19.5,9.2 L18.8,9.6 Z" id="Shape"></path>
                        <path d="M28,9.3 L26.4,9.3 C25.4,9.3 25.4,8.9 25.4,8.4 L25.4,4.9 L24.2,4.9 C24.2,7.6 23.7,9 21,9.6 L20.7,8.8 C23,8.3 23.4,7.7 23.5,4.8 L20.5,4.8 L20.5,4.1 L29.4,4.1 L29.4,4.8 L26.2,4.8 L26.2,8.1 C26.2,8.3 26.3,8.5 26.6,8.5 L27.9,8.5 C28.5,8.5 28.6,8.5 28.8,7.2 L29.5,7.6 C29.2,9.2 28.8,9.3 28,9.3 Z M21.6,1.6 L21.6,0.9 L28.1,0.9 L28.1,1.6 L21.6,1.6 Z" id="Shape"></path>
                        <path d="M35.4,3.5 L34.3,3.5 L34.3,2.4 L35.4,2.4 L35.4,3.5 Z M35.4,7.7 L34.3,7.7 L34.3,6.6 L35.4,6.6 L35.4,7.7 Z" id="Shape"></path>
                        <path d="M46.3,9.5 L46.3,8.7 L41.9,8.7 L41.9,9.5 L41.1,9.5 L41.1,1.2 L47,1.2 L47,9.5 L46.3,9.5 Z M46.3,1.9 L41.9,1.9 L41.9,4.6 L46.3,4.6 L46.3,1.9 Z M46.3,5.2 L41.9,5.2 L41.9,7.9 L46.3,7.9 L46.3,5.2 Z" id="Shape"></path>
                        <path d="M57.2,8 C55.3,6.6 54.3,5.3 53.6,3.8 L53.6,7.3 L55.4,7.3 L55.4,8 L53.6,8 L53.6,9.6 L52.9,9.6 L52.9,8 L51.1,8 L51.1,7.3 L52.9,7.3 L52.9,3.8 C52.1,5.4 51,6.9 49.3,8.1 L48.7,7.5 C50.2,6.4 51.5,5 52.3,3.3 L48.9,3.3 L48.9,2.6 L52.9,2.6 L52.9,0.5 L53.6,0.5 C53.6,0.5 53.8,0.5 53.8,0.6 C53.8,0.7 53.7,0.7 53.6,0.8 L53.6,2.5 L57.6,2.5 L57.6,3.2 L54.1,3.2 C55.1,5.2 56.4,6.3 57.9,7.3 L57.2,8 Z" id="Path"></path>
                        <path d="M66.5,7.1 L66.5,8.5 C66.5,9.5 65.9,9.6 64.8,9.6 L64.5,8.8 C64.8,8.8 65,8.8 65.1,8.8 C65.7,8.8 65.8,8.5 65.8,8.3 L65.8,7.1 L60.7,7.1 L60.7,9.6 L60,9.6 L60,7.1 L58.8,7.1 L58.8,6.4 L60,6.4 L60,2.8 L62.9,2.8 L62.9,1.7 L58.9,1.7 L58.9,1 L67.8,1 L67.8,1.7 L63.7,1.7 L63.7,2.8 L66.6,2.8 L66.6,6.4 L67.8,6.4 L67.8,7.1 L66.5,7.1 Z M62.9,3.4 L60.8,3.4 L60.8,4.5 L62.9,4.5 L62.9,3.4 Z M62.9,5.2 L60.8,5.2 L60.8,6.4 L62.9,6.4 L62.9,5.2 Z M65.8,3.4 L63.6,3.4 L63.6,4.5 L65.8,4.5 L65.8,3.4 Z M65.8,5.2 L63.6,5.2 L63.6,6.4 L65.8,6.4 L65.8,5.2 Z" id="Shape"></path>
                        <path d="M71.8,7.7 C71.3,8.3 70.6,9.1 69.4,9.7 L68.8,9.1 C70.2,8.4 70.7,7.8 71.3,7 L72,7.4 C72.1,7.4 72.1,7.5 72.1,7.5 C72.1,7.7 71.9,7.7 71.8,7.7 Z M68.8,7 L68.8,6.3 L69.7,6.3 L69.6,1 L70.2,1.1 C70.5,1 70.7,0.9 71.1,0.7 L71.6,1.1 C71.6,1.1 71.6,1.1 71.7,1.2 L71.7,1 L75.1,1 L75.1,6.3 L76.3,6.3 L76.3,5.2 L75.3,5.2 L75.3,4.6 L76.3,4.6 L76.3,3.5 L75.3,3.5 L75.3,2.9 L76.3,2.9 L76.3,1.6 L75.2,1.6 L75.2,1 L77,1 L76.9,6.4 L77.7,6.4 L77.7,7.1 L68.8,7.1 L68.8,7 Z M71.5,1.3 C71.4,1.3 71.3,1.3 71.3,1.3 C70.9,1.5 70.6,1.6 70.2,1.7 L70.2,2.9 L71.2,2.9 L71.2,3.5 L70.2,3.5 L70.2,4.6 L71.2,4.6 L71.2,5.2 L70.2,5.2 L70.2,6.3 L71.4,6.3 L71.4,1.3 L71.5,1.3 Z M74.3,1.6 L72.2,1.6 L72.2,6.3 L74.3,6.3 L74.3,1.6 Z M72.5,3 L72.5,2.4 L74,2.4 L74,3 L72.5,3 Z M72.5,5.4 L72.5,3.5 L74,3.5 L74,5.4 L72.5,5.4 Z M73.5,4 L73,4 L73,4.8 L73.5,4.8 L73.5,4 Z M77.1,9.7 C75.8,9 75.1,8.5 74.4,7.7 L74.9,7.2 C75.3,7.7 76,8.3 77.6,9.1 L77.1,9.7 Z" id="Shape"></path>
                        <path d="M79.3,0.9 C79.7,1.4 80,1.8 80.4,2.5 L79.8,2.8 C79.5,2.3 79.2,1.8 78.7,1.2 L79.3,0.9 Z M79.2,6.5 L79.2,3.1 L83.3,3.1 L83.3,6.5 L81.6,6.5 L81.6,7.4 L83.6,7.4 L83.6,8 L81.6,8 L81.6,9.6 L80.9,9.6 L80.9,8 L78.8,8 L78.8,7.4 L80.9,7.4 L80.9,6.5 L79.2,6.5 Z M80.9,3.7 L79.9,3.7 L79.9,4.5 L80.9,4.5 L80.9,3.7 Z M79.9,5.1 L79.9,5.9 L80.9,5.9 L80.9,5.1 L79.9,5.1 Z M80.9,0.5 C81.4,1.1 81.6,1.7 81.8,2.3 L81.1,2.5 C80.8,1.7 80.5,1.1 80.3,0.8 L80.9,0.5 Z M82.6,3.7 L81.6,3.7 L81.6,4.5 L82.6,4.5 L82.6,3.7 Z M81.6,5.1 L81.6,5.9 L82.6,5.9 L82.6,5.1 L81.6,5.1 Z M82.1,2.5 C82.5,1.9 82.8,1.4 83.1,0.6 L83.7,0.9 C83.8,0.9 83.8,1 83.8,1 C83.8,1.1 83.7,1.1 83.6,1.1 C83.4,1.6 83.1,2.1 82.7,2.7 L82.1,2.5 Z M88,8.3 C87.8,8.8 87.4,9.5 87,9.5 C86.6,9.5 86,9 85.4,7.6 C84.9,8.2 84,8.9 83.5,9.2 L82.9,8.7 C83.7,8.3 84.5,7.8 85.2,6.9 C84.9,6 84.8,5.3 84.7,4.2 L83.7,4.2 L83.7,3.5 L84.7,3.5 C84.7,2.7 84.7,2.3 84.7,0.6 L85.5,0.7 C85.7,0.7 85.7,0.8 85.7,0.8 C85.7,0.9 85.6,0.9 85.5,1 C85.4,1.5 85.4,2.4 85.4,3.5 L87.6,3.4 L87.7,4 L85.4,4.1 C85.5,5 85.5,5.5 85.7,6.1 C86.1,5.5 86.2,5.2 86.4,4.7 L87.1,5 C87.1,5 87.2,5.1 87.2,5.1 C87.2,5.2 87.1,5.2 86.9,5.2 C86.6,5.8 86.3,6.3 85.9,6.8 C86.4,8.3 86.9,8.4 86.9,8.4 C87,8.4 87.1,8.2 87.2,8.1 C87.3,7.9 87.3,7.8 87.4,7.6 L88,8.3 Z M86.2,1 C86.7,1.5 87,1.9 87.2,2.3 L86.6,2.7 C86.1,1.8 85.8,1.6 85.7,1.4 L86.2,1 Z" id="Shape"></path>
                        <path d="M89,1.5 L92.5,1.5 L92.5,8.4 L91.9,8.4 L91.9,7.9 L89.7,7.9 L89.7,8.8 L89.1,8.8 L89.1,1.5 L89,1.5 Z M90.5,2.1 L89.7,2.1 L89.7,4.3 L90.5,4.3 L90.5,2.1 Z M90.5,5 L89.7,5 L89.7,7.3 L90.5,7.3 L90.5,5 Z M91.9,2.1 L91.1,2.1 L91.1,4.3 L91.9,4.3 L91.9,2.1 Z M91.9,5 L91.1,5 L91.1,7.3 L91.9,7.3 L91.9,5 Z M96.9,1.7 L97.1,2 C96.7,2.8 96.3,3.4 95.7,4 C96.5,4.5 97.1,4.8 97.8,4.9 L97.4,5.5 C96.6,5.3 95.9,5 95.2,4.4 C94.8,4.7 94.1,5.2 92.9,5.6 L92.6,5 C93.6,4.7 94.2,4.4 94.8,4 C94.2,3.3 94,2.9 93.9,2.7 C93.4,3.3 93.3,3.4 93.1,3.5 L92.6,3.1 C93.6,2.1 94.1,1.2 94.4,0.5 L95.1,0.8 C95.2,0.8 95.2,0.9 95.2,0.9 C95.2,1 95,1 94.9,1 C94.7,1.3 94.6,1.5 94.5,1.7 L96.9,1.7 Z M93.4,5.8 L97.2,5.8 L97.2,9.6 L96.5,9.6 L96.5,9 L94.1,9 L94.1,9.6 L93.4,9.6 L93.4,5.8 Z M96.5,6.4 L94.1,6.4 L94.1,8.3 L96.5,8.3 L96.5,6.4 Z M94.5,2.3 C94.7,2.8 94.9,3.1 95.3,3.5 C95.8,3 96,2.7 96.2,2.3 L94.5,2.3 Z" id="Shape"></path>
                        <path d="M101.8,8.9 C102,7.2 103,6.4 104.8,5.4 C105.9,4.8 106.4,4.5 106.4,3.6 C106.4,2.5 105.5,2.2 104.8,2.2 C103.1,2.2 103,3.6 103,4 L102.1,4 C102.1,3.6 102.2,2.9 102.7,2.2 C103.4,1.4 104.4,1.4 104.8,1.4 C105.8,1.4 107.3,1.9 107.3,3.5 C107.3,4.8 106.5,5.3 105.2,6 C103.4,7 103.1,7.6 102.9,8.1 L107.3,8.1 L107.3,8.9 L101.8,8.9 Z" id="Path"></path>
                        <path d="M111,9.1 C108.8,9.1 108.2,7.1 108.2,5.3 C108.2,3.5 108.7,1.5 111,1.5 C113.2,1.5 113.8,3.5 113.8,5.3 C113.8,7 113.3,9.1 111,9.1 Z M111,2.1 C109.6,2.1 109.2,3.6 109.2,5.2 C109.2,6.9 109.6,8.3 111,8.3 C112.4,8.3 112.8,6.9 112.8,5.2 C112.8,3.5 112.4,2.1 111,2.1 Z" id="Shape"></path>
                        <path d="M117,8.9 L117,3.6 L115.5,3.6 L115.5,3 C116.1,3 117,2.9 117.3,1.7 L118,1.7 L118,9 L117,9 L117,8.9 Z" id="Path"></path>
                        <path d="M123.7,9.1 C121.2,9.1 120.8,6.7 120.8,5.4 C120.8,2.8 122,1.4 123.8,1.4 C124.7,1.4 125.9,1.8 126.2,3.3 L125.3,3.3 C125.2,3 125,2.2 123.8,2.2 C121.9,2.2 121.8,4.4 121.8,5.1 C122.2,4.6 122.8,4.1 123.9,4.1 C125.2,4.1 126.4,4.9 126.4,6.5 C126.4,7.9 125.4,9.1 123.7,9.1 Z M125.1,5.4 C124.8,5 124.3,4.9 123.8,4.9 C122.9,4.9 122,5.4 122,6.5 C122,7.2 122.4,8.4 123.8,8.4 C124.8,8.4 125.5,7.7 125.5,6.6 C125.4,6.2 125.4,5.7 125.1,5.4 Z" id="Shape"></path>
                        <path d="M138.1,9.5 L137.2,9.5 L136.9,8.6 C137.1,8.6 137.5,8.7 137.9,8.7 C138.3,8.7 138.3,8.5 138.3,8.2 L138.3,3.1 L135.5,3.1 C135.8,4.7 136.7,5.9 138.2,6.7 L137.6,7.3 C137,6.9 136.5,6.4 136,5.9 C135.3,5.1 135.2,4.4 135,4 C134.5,5.8 133.6,6.6 132.4,7.4 L131.9,6.9 C132.5,6.5 133.1,6.1 133.6,5.4 C134.3,4.5 134.4,3.8 134.5,3.1 L131.8,3.1 L131.8,9.6 L131.1,9.6 L131.1,2.4 L134.6,2.4 C134.6,1.9 134.7,1.5 134.6,0.5 L135.4,0.6 C135.6,0.6 135.6,0.7 135.6,0.7 C135.6,0.8 135.5,0.8 135.3,0.9 C135.3,1.5 135.3,1.9 135.3,2.4 L138.9,2.4 L138.9,8.7 C139,9.1 139,9.5 138.1,9.5 Z" id="Path"></path>
                        <path d="M147.8,7.4 C147.6,7.4 147.5,7.3 147,7.2 L147,9 L143.7,9 L143.7,9.3 L143.1,9.3 L143.1,7.4 C142.9,7.5 142.6,7.6 142.4,7.6 L142,7 C143.1,6.8 143.8,6.5 144.7,5.9 C144.3,5.5 144.2,5.4 144,5.2 C143.4,5.7 143.2,5.7 143,5.8 L142.5,5.3 C142.8,5.2 143.8,4.7 144.5,3.8 L141.7,3.8 L141.7,9.5 L141,9.5 L141,0.8 L144.6,0.8 L144.6,3.6 L145.2,3.9 C145.2,3.9 145.3,3.9 145.3,4 C145.3,4.1 145.2,4.1 145,4.2 L144.9,4.4 L146.6,4.4 L147,4.8 C146.8,5 146.6,5.3 145.8,5.9 C146.7,6.4 147.3,6.6 148.3,6.8 L147.8,7.4 Z M143.8,1.4 L141.6,1.4 L141.6,2 L143.8,2 L143.8,1.4 Z M143.8,2.6 L141.6,2.6 L141.6,3.3 L143.8,3.3 L143.8,2.6 Z M145.1,6.3 C144.4,6.8 144.1,6.9 143.6,7.2 L146.6,7.2 C146.4,7 145.9,6.8 145.1,6.3 Z M146.4,7.7 L143.7,7.7 L143.7,8.5 L146.4,8.5 L146.4,7.7 Z M144.5,4.9 C144.6,5 144.7,5.1 145.1,5.5 C145.6,5.2 145.7,5.1 145.8,4.9 L144.5,4.9 Z M147.9,9.5 L147.6,8.7 C148,8.7 148.1,8.8 148.2,8.8 C148.4,8.8 148.5,8.7 148.5,8.4 L148.5,3.8 L145.5,3.8 L145.5,0.9 L149.2,0.9 L149.2,8.7 C149.2,9.3 149.1,9.5 147.9,9.5 Z M148.5,1.4 L146.2,1.4 L146.2,2 L148.5,2 L148.5,1.4 Z M148.5,2.6 L146.2,2.6 L146.2,3.3 L148.5,3.3 L148.5,2.6 Z" id="Shape"></path>
                        <path d="M151.9,2.5 C151.9,3.2 152,3.9 152,4.6 C152,7.1 151.7,8.3 151.3,9.4 L150.6,9.2 C151.1,8.2 151.4,7.3 151.4,4.7 C151.4,3.3 151.3,2.4 151.2,1.9 L154.8,1.9 L154.8,0.6 L155.6,0.7 C155.6,0.7 155.8,0.7 155.8,0.8 C155.8,0.8 155.7,0.9 155.5,1 L155.5,1.9 L159.3,1.9 L159.3,2.6 L151.9,2.6 L151.9,2.5 Z M153.9,9.5 L153.2,9.5 L153.2,5.6 C153,5.8 152.9,6 152.5,6.3 L152,5.8 C153,4.9 153.5,3.9 153.8,2.9 L154.4,3.1 C154.5,3.1 154.6,3.2 154.6,3.3 C154.6,3.4 154.4,3.4 154.3,3.5 C154.2,3.8 154.1,4.1 153.9,4.4 C153.9,4.4 154,4.5 154,4.5 C154,4.6 153.9,4.6 153.8,4.7 L153.8,9.5 L153.9,9.5 Z M157.8,8.5 C157.8,9.2 157.7,9.5 156.9,9.5 L156.4,9.5 L156.1,8.8 C156.3,8.8 156.6,8.8 156.8,8.8 C157.1,8.8 157.1,8.6 157.1,8.4 L157.1,5 L154.7,5 L154.7,4.3 L157.1,4.3 L157.1,2.9 L157.8,2.9 C157.8,2.9 158,2.9 158,3 C158,3.1 157.9,3.1 157.8,3.2 L157.8,4.3 L159.3,4.3 L159.3,5 L157.8,5 L157.8,8.5 Z M155.2,5.5 C155.5,5.9 155.8,6.2 156.1,6.8 L155.5,7.2 C155.3,6.7 155.1,6.4 154.6,5.9 L155.2,5.5 Z" id="Shape"></path>
                    </g>
                    <g id="Group" transform="translate(145.000000, 26.000000)" fill="#17181A" fill-rule="nonzero">
                        <path d="M12.4,14.6 C11.4,13.1 10.1,11.6 8,9.9 C6.8,11.2 5.3,13 1.8,14.6 L0.3,13.1 C2.2,12.3 6.7,10.2 9.2,4.2 L2.3,4.2 L2.3,2.3 L9.5,2.3 C9.9,2.3 10.3,2.3 11,1.8 L12.4,3.5 C11.6,3.9 11.5,4 11.3,4.5 C11.2,4.7 10.7,6 9.3,8.2 C12.1,10.3 13.5,12.1 14,12.9 L12.4,14.6 Z" id="Path"></path>
                        <path d="M15.1,11.9 C16.5,10.9 17.7,9.6 18.8,7.9 L20.2,8.8 C20.6,9.1 20.6,9.1 20.6,9.2 C20.6,9.4 20.4,9.4 20.3,9.4 C20.2,9.4 20.2,9.4 20.1,9.6 C19.2,11 18.1,12.1 16.9,13.2 L15.1,11.9 Z M19.3,13.1 C19.8,13.2 20.5,13.2 20.9,13.2 C21.7,13.2 21.7,13.1 21.7,12.2 L21.7,6.3 L16.4,6.3 L16.4,4.5 L21.7,4.5 L21.7,1.1 L23.5,1.4 C23.9,1.5 24,1.6 24,1.7 C24,1.8 24,1.8 23.8,1.9 C23.7,2 23.7,2.1 23.7,2.2 L23.7,4.5 L28.9,4.5 L28.9,6.3 L23.7,6.3 L23.7,12.9 C23.7,15.1 23.1,15.1 20.2,15.2 L19.3,13.1 Z M27.8,12.9 C26.9,11 25.4,9.4 24.9,8.9 L26.4,7.8 C27.6,8.9 28.6,10.1 29.5,11.7 L27.8,12.9 Z M26.6,1.8 C26.6,0.8 27.4,0 28.3,0 C29.2,0 30,0.8 30,1.8 C30,2.8 29.2,3.6 28.3,3.6 C27.3,3.6 26.6,2.8 26.6,1.8 Z M29.2,1.8 C29.2,1.3 28.8,0.9 28.3,0.9 C27.8,0.9 27.4,1.3 27.4,1.8 C27.4,2.3 27.8,2.8 28.3,2.8 C28.8,2.8 29.2,2.3 29.2,1.8 Z" id="Shape"></path>
                        <polygon id="Path" points="44.5 7.2 44.5 9.2 31.8 9.2 31.8 7.2"></polygon>
                        <path d="M48.4,7.2 C48.1,6.2 47.6,5.1 46.7,3.7 L48.5,3 C49.3,4.1 49.9,5.4 50.3,6.5 L48.4,7.2 Z M49.2,13.6 C55.5,11 56.9,6.4 57.7,2.3 L59.6,2.9 C59.8,3 60.1,3.1 60.1,3.3 C60.1,3.5 59.9,3.5 59.9,3.5 C59.7,3.6 59.7,3.6 59.7,3.7 C58.1,9.2 56.1,12.6 50.9,15.1 L49.2,13.6 Z M52.5,6.2 C52.1,4.7 51.5,3.5 51,2.7 L52.7,2 C53.4,3 54.1,5 54.3,5.6 L52.5,6.2 Z" id="Shape"></path>
                        <path d="M70,13.5 C71.1,13.2 74.7,12.2 74.7,8.2 C74.7,4.2 71.3,3.7 70.3,3.5 C70,5.6 69.6,8.6 68.1,11.9 C67.9,12.3 67.1,14.2 66,14.2 C64.9,14.2 62.4,12.6 62.4,9.1 C62.4,5.2 65.5,1.8 70,1.8 C74.1,1.8 76.7,4.4 76.7,8.2 C76.7,13.2 72.7,14.6 71.4,15.1 L70,13.5 Z M64.1,9.1 C64.1,10.7 65,11.8 65.6,11.8 C66,11.8 66.3,11.1 66.5,10.5 C67.4,8.3 68,5.9 68.2,3.6 C64.5,4.9 64.1,7.9 64.1,9.1 Z" id="Shape"></path>
                        <path d="M90.9,3.3 C90.4,2.4 89.9,2 89.5,1.6 L90.9,0.7 C91.7,1.6 92,1.9 92.5,2.5 L91.4,3.3 L93.9,3.3 L93.9,5.1 L88.2,5.1 C88.5,7.7 88.7,8.3 89.1,9.7 C89.5,9 90.1,7.8 90.6,5.8 L92.1,6.3 C92.6,6.5 92.6,6.5 92.6,6.6 C92.6,6.7 92.5,6.7 92.3,6.9 C92.2,6.9 92.2,7 92.1,7.3 C91.3,9.6 90.4,10.9 90,11.5 C90.6,12.5 91.4,13.3 91.8,13.3 C92.1,13.3 92.3,12.4 92.4,11.8 L93.8,12.7 C93.3,15.6 92.7,15.8 92.1,15.8 C91,15.8 90.1,14.7 88.8,12.9 C87.9,13.9 87.1,14.7 85.4,15.6 L84.2,14.2 C85.8,13.3 86.8,12.5 87.9,11.2 C87.1,9.4 86.7,7.9 86.5,4.8 L82.1,4.8 L82.1,6.7 L85.9,6.7 C85.8,12.3 85.6,13.4 82.4,13.5 L81.7,11.8 C81.4,12.9 81.3,13.6 80.5,15.3 L78.8,14.6 C79.9,12.5 80.3,10.7 80.3,6.5 C80.3,4.9 80.2,4.1 80.1,3 L86.5,3 C86.5,2 86.4,1.8 86.4,0.3 L87.9,0.4 C88.3,0.4 88.6,0.4 88.6,0.6 C88.6,0.7 88.3,1 88.2,1 C88.1,1.3 88.1,2.6 88.1,3 L90.9,3 L90.9,3.3 Z M82,8.7 C81.9,10.1 81.8,10.8 81.6,11.9 C82.4,12 82.6,12.1 82.8,12.1 C83.6,12.1 84.1,11.6 84.1,8.7 L82,8.7 Z" id="Shape"></path>
                        <path d="M105.4,14 C103.8,14.4 102.9,14.6 98.9,15.5 C98.5,15.6 98.3,15.6 98.3,15.7 C98.2,15.9 98.2,15.9 98.1,15.9 C97.9,15.9 97.8,15.6 97.8,15.4 L97.4,13.7 C97.9,13.7 99.1,13.5 99.6,13.5 L99.6,9.5 L96.7,9.5 L96.7,8 L100,8 L100,0.9 L110.5,0.9 L110.5,2.4 L101.7,2.4 L101.7,3.4 L109.6,3.4 L109.6,4.8 L101.7,4.8 L101.7,5.8 L109.6,5.8 L109.6,7.2 L101.7,7.2 L101.7,8.2 L112,8.2 L112,9.7 L109.6,9.7 L110.4,10.4 C110.6,10.6 110.7,10.7 110.7,10.8 C110.7,10.9 110.7,10.9 110.3,10.9 C110.2,10.9 109.6,11.4 109.4,11.5 C109.1,11.8 108.5,12.2 108,12.6 C109.1,13.4 110.1,13.9 111.9,14.4 L110.5,16.1 C107.9,15.1 106.6,14.1 105.3,12.7 L105.3,14 L105.4,14 Z M101.4,13.2 C102.8,12.9 103.9,12.7 105.2,12.2 C104.5,11.3 103.9,10.6 103.3,9.4 L101.4,9.4 L101.4,13.2 Z M105.4,9.5 C105.8,10.1 106.1,10.6 106.7,11.2 C107.5,10.7 108.2,10.1 108.8,9.5 L105.4,9.5 Z" id="Shape"></path>
                        <path d="M117.4,6.5 L117.4,7.8 C117.4,10.1 117.4,13.5 115.8,15.9 L114,15.3 C114.7,14.1 115.6,12.6 115.6,8.7 C115.6,8.1 115.6,8 115.4,5 L119.2,5 C118.5,3.6 118.3,3.4 118.2,3.2 L115.2,3.2 L115.2,1.8 L121,1.8 L121,0.2 L122.8,0.3 C123,0.3 123.3,0.3 123.3,0.5 C123.3,0.6 123,0.9 122.9,1 L122.9,1.8 L128.8,1.8 L128.8,3.2 L125.9,3.2 C125.6,3.9 125.4,4.3 125,5 L129.1,5 L129.1,6.5 L117.4,6.5 Z M122.3,8.3 L122.3,6.9 L123.8,7.1 C124.2,7.2 124.3,7.2 124.3,7.3 C124.3,7.4 124.2,7.4 124.2,7.5 C124.1,7.6 124,7.7 124,7.8 L124,8.3 L128.4,8.3 L128.4,9.8 L124,9.8 L124,11.1 L127.2,11.1 L127.2,12.5 L124,12.5 L124,14.1 L129.3,14.1 L129.3,15.6 L117.1,15.6 L117.1,14.1 L122.2,14.1 L122.2,12.5 L119.2,12.5 L119.2,11 L122.2,11 L122.2,9.7 L119.9,9.7 C119.4,10.6 119.2,10.9 119,11.1 L117.5,10.3 C117.8,9.9 118.9,8.6 119.3,6.8 L120.9,7.4 C121.1,7.5 121.1,7.5 121.1,7.6 C121.1,7.7 121,7.7 120.9,7.8 C120.8,7.9 120.7,8.1 120.7,8.2 L122.3,8.2 L122.3,8.3 Z M120.2,3.3 C120.5,3.8 120.9,4.6 121.2,5.1 L123.3,5.1 C123.7,4.6 124,3.9 124.2,3.3 L120.2,3.3 Z" id="Shape"></path>
                        <path d="M142.9,2.4 C143.1,2.1 143.6,1.2 143.9,0.4 L145.4,1.1 C145.6,1.2 145.7,1.2 145.7,1.4 C145.7,1.5 145.7,1.5 145.4,1.6 C145.2,1.7 145.1,1.8 144.9,2.1 C144.5,2.6 144.5,2.7 144.3,2.9 L147.3,2.9 L147.3,4.4 L143.7,4.4 C143.3,5.1 143.3,5.2 143,5.6 L146.4,5.6 L146.4,7 L140.6,7 L140.6,7.8 L145.3,7.8 L145.3,9.1 L140.6,9.1 L140.6,10 L147.2,10 L147.2,11.5 L142,11.5 C143.7,12.8 145.5,13.7 147,14.5 L145.7,15.9 C143.5,14.7 142,13.7 140.6,12.4 L140.6,15.9 L138.8,15.9 L138.8,12.6 C137.4,13.8 135.9,14.8 133.6,16 L132.2,14.6 C133.1,14.2 135.3,13.4 137.5,11.5 L132.2,11.5 L132.2,10 L138.8,10 L138.8,9 L134.1,9 L134.1,7.7 L138.8,7.7 L138.8,6.9 L132.9,6.9 L132.9,5.5 L136.5,5.5 C136,4.7 136,4.6 135.8,4.3 L132.2,4.3 L132.2,2.8 L135.2,2.8 C134.8,2.3 134.2,1.5 133.9,1.2 L135.2,0.4 C135.7,0.9 136.1,1.4 136.7,2.4 L135.8,2.8 L137.3,2.8 L137.3,0.4 L138.9,0.5 C139,0.5 139.4,0.6 139.4,0.7 C139.4,0.8 139.3,0.8 139.3,0.8 C139,1 139,1 139,1.1 L139,2.7 L140.3,2.7 L140.3,0.4 L141.9,0.5 C142,0.5 142.3,0.5 142.3,0.7 C142.3,0.8 142.2,0.8 142.2,0.9 C141.9,1.1 141.8,1.1 141.8,1.2 L141.8,2.8 L143.4,2.8 L142.9,2.4 Z M141.3,5.5 C141.7,4.9 141.7,4.8 141.9,4.3 L137.8,4.3 C138.2,5 138.4,5.3 138.6,5.5 L141.3,5.5 Z" id="Shape"></path>
                        <path d="M149.7,8 C152.5,5.2 153.5,2.7 154.3,0.6 L156,1.5 C156.1,1.6 156.4,1.7 156.4,1.8 C156.4,1.9 156.3,2 156,2 C155.9,2 155.8,2.1 155.8,2.2 C155.4,3.1 155,3.8 154.7,4.4 C154.8,4.5 155.1,4.7 155.1,4.9 C155.1,5 155.1,5 154.7,5.2 C154.6,5.3 154.6,5.4 154.6,5.5 L154.6,15.6 L152.8,15.6 L152.8,7.5 C151.9,8.6 151.6,8.9 151.3,9.3 L149.7,8 Z M159.2,0.8 C159.4,0.8 159.6,0.8 159.6,1 C159.6,1.1 159.6,1.1 159.3,1.3 C159.2,1.4 159.2,1.5 159.2,1.6 L159.2,7.1 C161.1,5.6 162.4,3.8 163.2,2.5 L165,3.4 C165.1,3.5 165.4,3.6 165.4,3.8 C165.4,4 165.3,4 164.9,4 C164.8,4 164.7,4.1 164.6,4.2 C162.8,6.3 161.5,7.5 159.3,9.2 L159.3,12.7 C159.3,13.3 159.4,13.5 160.1,13.5 L162.3,13.5 C163.3,13.5 163.4,13.5 163.6,11.7 L165.6,12.6 C165.4,15.2 164.5,15.3 163.1,15.3 L159.4,15.3 C157.8,15.3 157.5,14.5 157.5,13.5 L157.5,0.6 L159.2,0.8 Z" id="Shape"></path>
                    </g>
                    <g id="Group" transform="translate(18.000000, 156.000000)" fill="#17181A" fill-rule="nonzero">
                        <path d="M2.5,4.6 L6.6,4.6 L6.6,3.2 L1.4,3.2 L1.4,2.3 L6.6,2.3 L6.6,0.4 L7.6,0.5 C7.7,0.5 7.8,0.5 7.8,0.6 C7.8,0.7 7.7,0.7 7.5,0.9 L7.5,2.3 L12.7,2.3 L12.7,3.2 L7.5,3.2 L7.5,4.6 L11.5,4.6 L11.5,9.7 C11.5,10.8 11.3,10.8 9.4,10.8 L9,9.8 C9.5,9.9 9.9,9.9 10,9.9 C10.5,9.9 10.5,9.8 10.5,9.3 L10.5,5.5 L7.4,5.5 L7.4,11.8 L6.4,11.8 L6.4,5.5 L3.3,5.5 L3.3,10.9 L2.4,10.9 L2.4,4.6 L2.5,4.6 Z" id="Path"></path>
                        <path d="M3.8,17.7 L3.8,21 C4.6,20.7 4.9,20.6 5.2,20.4 L5.2,21.3 C4.1,21.8 3,22.2 1.8,22.6 C1.7,22.8 1.7,22.9 1.6,22.9 C1.5,22.9 1.4,22.7 1.4,22.6 L1.2,21.7 C1.5,21.7 1.6,21.7 2.9,21.3 L2.9,17.7 L1.4,17.7 L1.4,16.9 L2.9,16.9 L2.9,14 L3.8,14.1 C3.9,14.1 4.1,14.1 4.1,14.3 C4.1,14.4 4,14.4 3.8,14.6 L3.8,17 L5.3,17 L5.3,17.8 L3.8,17.8 L3.8,17.7 Z M8.4,19.7 C8.2,20 7.9,20.4 7.9,20.5 L12.5,20.5 C12.5,21.3 12.3,23.7 12,24.4 C11.7,25.1 11.1,25.1 10.6,25.1 L9.9,25.1 L9.6,24 C9.8,24.1 10.3,24.2 10.6,24.2 C10.8,24.2 11.1,24.2 11.3,23.6 C11.4,23.2 11.5,22.5 11.5,21.3 L10.9,21.3 C10.4,23 9.7,24.1 8.1,25.3 L7.2,24.8 C8,24.3 9.4,23.4 10,21.3 L9.2,21.3 C8.8,22.1 8.5,22.6 7.9,23.3 C7,24.2 6,24.7 5.5,24.9 L4.8,24.3 C5.7,24 7.4,23.2 8.3,21.4 L7.3,21.4 C6.6,22.1 6,22.7 5.1,23.3 L4.3,22.7 C5.6,22 6.7,21 7.5,19.7 L5,19.7 L5,18.9 L12.7,18.9 L12.7,19.7 L8.4,19.7 Z M6.2,18.1 L6.2,14.1 L11.5,14.1 L11.5,18.1 L6.2,18.1 Z M10.6,14.9 L7.1,14.9 L7.1,15.7 L10.6,15.7 L10.6,14.9 Z M10.6,16.4 L7.1,16.4 L7.1,17.3 L10.6,17.3 L10.6,16.4 Z" id="Shape"></path>
                        <path d="M6,36.6 C5.5,36.2 4.8,35.5 4.3,34 C3.9,35.6 3.4,36.8 2,38.1 L1.2,37.6 C2.9,36.1 3.3,34.9 3.6,33.2 L1.6,33.2 L1.6,32.4 L3.7,32.4 C3.7,32 3.7,31.8 3.7,30.6 L1.8,30.6 L1.8,29.8 L3.7,29.8 L3.7,27.2 L4.6,27.3 C4.8,27.3 4.9,27.3 4.9,27.4 C4.9,27.5 4.8,27.6 4.6,27.7 L4.6,29.7 L6.4,29.7 L6.4,30.5 L4.6,30.5 C4.6,31.4 4.6,31.7 4.6,32.3 L6.5,32.3 L6.5,33.1 L4.9,33.1 C5.4,34.6 5.8,35.1 7,36 L6,36.6 Z M11.8,38.3 L10.8,38.3 C10.1,38.3 9.8,38.2 9.8,37.4 L9.8,34.5 L8.9,34.5 C8.8,37.1 7.8,38 5.7,38.7 L5.1,37.9 C7.1,37.4 7.9,36.4 8,34.5 L6.9,34.5 L6.9,27.5 L12,27.5 L12,34.5 L10.6,34.5 L10.6,37.3 C10.6,37.6 10.6,37.6 10.9,37.6 L11.4,37.6 C11.9,37.6 11.9,37.3 11.9,36.2 L12.8,36.5 C12.8,38.2 12.4,38.3 11.8,38.3 Z M11.1,28.2 L7.7,28.2 L7.7,29.6 L11.1,29.6 L11.1,28.2 Z M11.1,30.2 L7.7,30.2 L7.7,31.6 L11.1,31.6 L11.1,30.2 Z M11.1,32.3 L7.7,32.3 L7.7,33.7 L11.1,33.7 L11.1,32.3 Z" id="Shape"></path>
                        <path d="M4.6,47.2 C4,46.5 3.9,46.3 3.7,45.8 L3.7,51.9 L2.8,51.9 L2.8,46.1 C2.5,46.9 2.1,47.7 1.6,48.5 L0.8,48.1 C1.9,46.5 2.3,45.3 2.6,44.3 L1.2,44.3 L1.2,43.5 L2.8,43.5 L2.8,40.6 L3.7,40.7 C3.8,40.7 4,40.8 4,40.9 C4,41 3.9,41 3.7,41.1 L3.7,43.5 L5.1,43.5 L5.1,44.3 L3.9,44.3 C4.2,45.1 4.5,45.7 5.2,46.5 L4.6,47.2 Z M9.3,49.3 C10.2,50.3 11.1,50.6 12.6,50.9 L12,51.7 C10.7,51.4 9.4,50.9 8.3,49.5 C7.4,50.9 6.3,51.4 4.8,51.8 L4.1,51 C5.3,50.8 6.6,50.6 7.4,49.3 L4.6,49.3 L4.6,48.5 L7.7,48.5 C7.8,48.1 7.9,47.9 7.9,47.4 L5.6,47.4 L5.6,43.7 L11.4,43.7 L11.4,47.4 L9,47.4 C8.9,47.9 8.9,48.1 8.8,48.5 L12.6,48.5 L12.6,49.3 L9.3,49.3 Z M10.4,42.5 L10.4,43.4 L9.5,43.4 L9.5,42.5 L8.1,42.5 L8.1,43.4 L7.2,43.4 L7.2,42.5 L5.1,42.5 L5.1,41.7 L7.2,41.7 L7.2,40.6 L8.2,40.7 C8.3,40.7 8.4,40.7 8.4,40.8 C8.4,40.9 8.3,41 8.1,41.1 L8.1,41.7 L9.5,41.7 L9.5,40.6 L10.5,40.7 C10.6,40.7 10.7,40.8 10.7,40.8 C10.7,40.9 10.6,41 10.4,41.1 L10.4,41.7 L12.3,41.7 L12.3,42.5 L10.4,42.5 Z M10.8,44.4 L6.8,44.4 L6.8,45.2 L10.8,45.2 L10.8,44.4 Z M10.8,45.9 L6.8,45.9 L6.8,46.7 L10.8,46.7 L10.8,45.9 Z" id="Shape"></path>
                    </g>
                </g>
            </g>
        </g>
    </g>
</svg>