<?xml version="1.0" encoding="UTF-8"?>
<svg width="97px" height="31px" viewBox="0 0 97 31" version="1.1" xmlns="http://www.w3.org/2000/svg" xmlns:xlink="http://www.w3.org/1999/xlink">
    <!-- Generator: Sketch 52.6 (67491) - http://www.bohemiancoding.com/sketch -->
    <title>A/ロゴ/スポジョバ</title>
    <desc>Created with Sketch.</desc>
    <defs>
        <path d="M10.6344503,22.0252459 L5.8504712,30.4968852 L0.299633508,30.4968852 L13.4581152,8.39032787 L5.90633508,8.39032787 L7.36895288,3.82163934 L21.3095288,3.82163934 L14.473822,15.4542623 L16.5255497,30.4968852 L11.5384293,30.4968852 L10.6344503,22.0252459 Z M28.5210471,13.0657377 L24.5851832,27.8593443 L20.1973298,27.8593443 L24.4175916,13.0657377 L28.5210471,13.0657377 Z M35.585288,6.5252459 L40.6435079,6.5252459 L39.1808901,11.0939344 L34.6508377,11.0939344 L30.6845026,30.4918033 L25.5551832,30.4918033 L29.5215183,11.0939344 L23.8691099,11.0939344 L25.3317277,6.5252459 L30.4610471,6.5252459 L31.0501571,3.64377049 L36.1794764,3.64377049 L35.585288,6.5252459 Z M37.088534,27.8593443 L32.8022513,27.8593443 L34.8082723,13.0657377 L38.9168063,13.0657377 L37.088534,27.8593443 Z M39.8969634,7.4704918 C38.8507853,7.4704918 38.0636126,7.14016393 37.535445,6.47442623 C37.0072775,5.81377049 36.8447644,5.0057377 37.0377487,4.05032787 C37.2408901,3.06442623 37.7335079,2.2157377 38.5257592,1.50934426 C39.3180105,0.80295082 40.2067539,0.447213115 41.1919895,0.447213115 C42.2381675,0.447213115 43.0354974,0.772459016 43.5789005,1.41786885 C44.1223037,2.06327869 44.2949738,2.88147541 44.0918325,3.86737705 C43.878534,4.9142623 43.3706806,5.77819672 42.5682723,6.45409836 C41.7709424,7.13508197 40.882199,7.4704918 39.8969634,7.4704918 Z M40.74,2.81032787 C40.4505236,2.81032787 40.1915183,2.91704918 39.9579058,3.13557377 C39.7242932,3.35409836 39.5770157,3.61327869 39.5109948,3.92327869 C39.3738743,4.59409836 39.6582723,4.92442623 40.3641885,4.92442623 C41.0497906,4.92442623 41.4662304,4.57377049 41.6084293,3.86737705 C41.6693717,3.56245902 41.6185864,3.30836066 41.4509948,3.11016393 C41.2834031,2.90688525 41.044712,2.81032787 40.74,2.81032787 Z M58.0781152,15.662623 L47.53,30.4968852 L41.2072251,30.4968852 L52.3495288,15.662623 L58.0781152,15.662623 Z M50.8361257,15.2103279 L44.2137173,15.2103279 L45.1126178,10.8144262 L51.7350262,10.8144262 L50.8361257,15.2103279 Z M52.3647644,8.24803279 L45.742356,8.24803279 L46.6412565,3.85721311 L53.2636649,3.85721311 L52.3647644,8.24803279 Z M57.6515183,8.06508197 L54.8887958,8.06508197 L56.2041361,1.64147541 L58.9617801,1.64147541 L57.6515183,8.06508197 Z M61.6127749,8.06508197 L58.8551309,8.06508197 L60.1704712,1.64147541 L62.9281152,1.64147541 L61.6127749,8.06508197 Z M91.6624607,8.06508197 L88.9048168,8.06508197 L90.2201571,1.64147541 L92.977801,1.64147541 L91.6624607,8.06508197 Z M95.6287958,8.06508197 L92.8711518,8.06508197 L94.1814136,1.64147541 L96.9441361,1.64147541 L95.6287958,8.06508197 Z M67.2042408,20.0940984 L61.0947644,20.0940984 L62.3440838,16.2267213 L67.9964921,16.2267213 L68.8649215,11.9731148 L61.8057592,11.9731148 L63.0855497,8.1057377 L74.1821466,8.1057377 L70.439267,26.4160656 L66.7319372,30.2834426 L58.2,30.2834426 L59.4543979,26.3804918 L65.9142932,26.3804918 L67.2042408,20.0940984 Z M86.4010995,3.71491803 L79.3571728,29.9327869 L74.1973822,29.9327869 L81.556178,3.71491803 L86.4010995,3.71491803 Z M91.8960733,10.1283607 L89.3110995,29.9327869 L84.1513089,29.9327869 L87.0460733,10.1283607 L91.8960733,10.1283607 Z" id="path-1"></path>
    </defs>
    <g id="Page-1" stroke="none" stroke-width="1" fill="none" fill-rule="evenodd">
        <g id="LP_クライアント向け" transform="translate(-20.000000, -20.000000)">
            <g id="A/ロゴ/スポジョバ" transform="translate(20.000000, 20.000000)">
                <g id="A/色/グレー（#17181A）">
                    <mask id="mask-2" fill="white">
                        <use xlink:href="#path-1"></use>
                    </mask>
                    <use id="Mask" fill="#17181A" fill-rule="nonzero" xlink:href="#path-1"></use>
                    <g id="A/色/白" mask="url(#mask-2)" fill="#FFFFFF" fill-rule="nonzero">
                        <rect id="Rectangle-2" x="0" y="0" width="97" height="31"></rect>
                    </g>
                </g>
            </g>
        </g>
    </g>
</svg>